<svg class="hero__image" xmlns="http://www.w3.org/2000/svg" width="643" height="375" fill="none">
    <path stroke="#000" stroke-miterlimit="10" stroke-width="2" class="squiggle" d="M0 357.263h96l37 1c-8.5 4.167-26 10.2-28 1-1.2-4.4.833-12.5 2-16l15.5-69 11-37c.5-1.667 2.9-5.2 8.5-6 7-1 17.5-1.5 21-1.5s18 .5 19.5 1c1.2.4 1.167 2.5 1 3.5l-10.5 50-11.5 57.5-1 15.5c-.167 1.167.3 3.6 3.5 4 3.2.4 28.667 2.167 41 3 4.167.333 12.6 1.8 13 5 .4 3.2-62.5 1-94-.5l-23.5-2.5c-.8333 0-2.4-.5-2-2.5.4-2 2.833-13.5 4-19l8.5-39.5 3-18.5c-27.5-.667-78.3074-3.5-81-3.5-4.5 0-3.5-4.5-4.5-7.5l-3-70.5-1.5-94 1-40c-.3333-2.1666.5-6.4 6.5-6 6 .4 45.5-1.4999 64.5-2.4999h106.5c3.5 0 91.5 0 94.5 2 4 .8 6 1.6666 6.5 2L305 167.763l-3.5 119.5c-.167 1.5-1.5 4.3-5.5 3.5-5-1-118-1.5-116.5-5 1.2-2.8 63.833-.167 95 1.5 4.216 1 14.119 1.5 20-4.5s3.45-69.5 1.5-100.5V73.7631c-.167-1-.9-3-2.5-3s-27.667-1.3334-40.5-2l-128-1c-28.3333.3333-85.1 1.4-85.5 3-3.5.4999-7 1-8 2.5-.8 1.2-1.3333 9.8333-1.5 14v73.4999c1.1667 31.667 3.7 95.8 4.5 99 .8 3.2 2.3333 11.333 3 15 0 .833.7 2.5 3.5 2.5 3.5 0 24 2 28 2s44 2 46 2 53 2.5 54 2 10.5 1 12.5 0 3.5 1.5 5.5-10 5-36 4-38c-.8-1.6-4 12.667-5.5 20-3.333 13.5-10 40.8-10 42 0 1.5-9 43.5-8.5 48s.5 6 2 7.5c1.2 1.2 18.167 2.5 26.5 3 69.333 3.667 209 10.7 213 9.5 5-1.5 4.5-2 4.5-4.5s-1.5-3-5.5-4-177-5-174.5-5-44-.5-36-1.5 17-4.5 22.5-5.5 4-.5 7-2 15.5-17.5 19-18.5 9-7.5 19-7.5 19.5-3.5 39 14c5 5.5 6 8.5 7 10.5s3 9.5 1 10.5-6.5-.5-8.5-1.5-11.5-8-11.5-10.5 0-6.5 1-5 10.5 9.5 12.5 12 2.5 2.5 3 4 1 3.5-1 5-6 3-13.5 3-27 .5-30.5-2-10-4-12-10c-1.6-4.8-1.333-13-1-16.5.667-4.333 3.5-13.8 9.5-17 7.5-4 12.5-7 18-7s16-2.5 29 14c0 3 0 6.5 5 3.5s14-16.5 15-21 1-7.5 1-9"/>
    <path stroke="#000" stroke-miterlimit="10" stroke-width="2" class="squiggle" d="M639 357.5c-9.833 0-31.241-.137-38.041.263-8.5.5-12.5-1.5-16.5-2.5-3.5-1.5-2.833-3.548-2.5-5.5.167-1.333.8-5.1 2-9.5s6.833-23.167 9.5-32l10.5-36.5c1.167-7.333 3.9-23.3 5.5-28.5 2-6.5 1-11.5-.5-19-.5-2-4-5.5-8-7-3.2-1.2-8.333-2.167-10.5-2.5l-11-2.5c-3.667-2.667-8.6-8.2 1-9 12-1 11.5 0 22.5 1.5 26.5 6 25 8.5 29.5 15 .5 4-1.5 14.5-3 21.5-1.2 5.6-9.833 31.667-14 44l-22.5 58.5c-1.167 3.5-4.3 11.3-7.5 14.5-4 4-9 3-9.5 3-.4 0-15.5-.333-23-.5-7.167-.333-23.6-.4-32 2-8.4 2.4-4.833 3.333-2 3.5l16.5-.5c3-.167 11-1 19-3 5.2-3.2 6.5-18.333 6.5-25.5.333-7.833 1-25.3 1-32.5 0-7.2.333-13.667.5-16v-36.5c0-4.167-.2-17.7-1-38.5-1-26 1-20-8-28.5-7.2-6.8-19-13.167-24-15.5-2.667-1.333-10.5-4.6-20.5-7-10-2.4-7.167 2.667-4.5 5.5l11 9.5 15 9.5c1.833 1 5.5 2.6 5.5 1 0-2-3.5-4.5-6-6-2.5-2-5-3-8.5-3-4.8-.8-10.333 9.667-12.5 15l-20 38.5c-3.5 7-10.7 21.3-11.5 22.5-1 1.5-5.5 12-7 21.5.5 9.5 1 9.5 2.5 13.5s3.5 4 4.5 2.5c1.5-2.5 0-6-4-15.5s-12.5-24-16-31.5c-2.8-6-7.167-14.833-9-18.5-.333-.833-1.7-5.2-4.5-16s-.833-9.5.5-7.5l9 5.5 12.5 8 6.5-9c4-6.167 12.7-19.8 15.5-25 3.5-6.5 6.5-14.5 7.5-20 1-2.5 0-11 0-12.5 0-1.2-2.667-8.833-4-12.5-.833-2-2.8-5.9-4-5.5-1.5.5-2.5 5.5-3 7.5s-6 10.5-9 14.5-21.5 22-24.5 24.5c-2.4 2-15.333 10.5-21.5 14.5-4.667 3.833-14.6 12.3-17 15.5-2.4 3.2-5.667.667-7-1-3.833-4.167-11.7-12.5-12.5-12.5-1 0-6-5-7-7.5s-2.5-5-2.5-10.5c0-4.4.667-3.833 1-3 .333 1.5.8 5.3 0 8.5.4 2.4-2.5 1.667-4 1-.5-.333-2.4-2.9-6-10.5-3-15.5 0-16.5 0-17.5s1.979-4.5 8-12.5 2.5-7.5 1-9-7.5-3.5-13-5.5-4-3.5-3.5-4.5c.4-.8 1.5-1.333 2-1.5 1.167-.667 5.7-1.7 14.5-.5s12.333 4.833 13 6.5c2.5 2.5 9.7 9.5 18.5 17.5 11 7.5 9.5 5 13 5s5-3.5 7.5-6 7-8.5 10.5-12 4-.5 4.5.5c.4.8-1.167 7-2 10-2.333 5.667-7.7 18.3-10.5 23.5-2.8 5.2-4.5 13.5-5 17-1.667 1.667-3.6 6.1 2 10.5s7 7.833 7 9c.667 3.833 1.9 11.8 1.5 13-.5 1.5-5.5 5-11.5 7.5s-19 4-21.5 4.5c-2 .4-7.167 1.167-9.5 1.5.167 2.5.5 7.8.5 9 0 1.2 6.667 23.167 10 34l10 25.5 10 24.5c6.167 10.667 19 32.4 21 34 2.5 2 4.5 8.5 17.5 5.5s22-15 29-21.5 15.5-22.5 22.5-32 28.5-58.5 29.5-62 8.5-30 10.5-41.5c.5-11.5-1-17.5-4-25-4-7.5-12-15-17.5-20-4.4-4-19.5-12-26.5-15.5-7.333-3.333-22.7-10.3-25.5-11.5-2.8-1.2-6.5-7.5-8-10.5-1.5-2.667-4.6-8.6-5-11-.5-3 1-4 2-8 .8-3.2.667-7.0001.5-8.5001-.167-6.6666-.5-20.3-.5-21.5 0-1.5-1-10.4999-3-19.5-2-9-6-12-7-13s-6-2.5-12-2c-4.8.4-15.333 2.8334-20 4-5.833 1-18.8 3-24 3-5.2 0-4.167-2.6666-3-4 .833-1.1666 3.1-4.1 5.5-6.5 3.6-5.2 1.167-3.5-.5-2l-20.5 16c-1.833 1-6.6 3.8-11 7s-4.5-1.6666-4-4.5l2-5.5c2.667-4.8333 8.2-14.8 9-16 1-1.5 10.5-13 16.5-18 4-5.49996 14.5-8.99996 16.5-9.99996s12-2.49996 16.5-2.49996c3.5-1 15 1 22 3.5 5.6 2 10.667 5.83332 12.5 7.50002 1.667 1.5 5.1 5 5.5 7 .4 2-.167 4.1666-.5 5l-2 4c.833-.1667 2.9-.6 4.5-1 10-1.6 13.5 2.6667 14 5 .833 2.6667 2.5 8.6 2.5 11 1 2.5-.5 18.5 0 19.5s-4 22-5 25c0 1.6-6.667 11-10 15.5l-14.5 14c-.833.333-3.8 2.2-9 7s-2.833 4.667-1 4c1.667-1.167 5.6-4 8-6 2.4-2 4.333-4.5 5-5.5 2.667-4 8.4-12.5 10-14.5 2-2.5 2-8.5 1.5-11 0-.5-2.5-1.5-4.5-.5-1.6.8-3 6.6667-3.5 9.5-1.167 2.5-3.8 7.7-5 8.5-1.5 1-1.5-5.5-2-7.5-.4-1.6-2.5-9.6667-3.5-13.5-.5-1.1667-2.7-4.5-7.5-8.5-6.4-8.8-7.333-13.6667-7-15-.333-1.8333-.5-6.7 1.5-11.5s2.5-3.3334 2.5-2c-.167 1.3333-.6 4.2-1 5-.5 1-2.5 4-5.5 4.5-2.4.4-6.667-.5-8.5-1-10.167-2-32.7-4.8-41.5 0-11 6-11.5 11-11.5 15.5-2.5 4 3.5 30 4 31.5s6 14.5 6 17 1 7-1.5 14c-2 5.6-9.833 10-13.5 11.5-3.333 3.333-10.6 10.5-13 12.5-2.4 2-11.667 12.167-16 17l-14.5 22c-2.667 4-10.4 14.3-20 23.5-12 11.5-2.5-2.5-.5-5.5.8-2.4 13-16.667 19-23.5 6.5-5.667 19.9-17 21.5-17 2 0 2.5 1 3.5 5 2.8 1.2 4.167 13.833 4.5 20 1.333 2.5 4.8 8.2 8 11 4 3.5.5 29 2.5 39 1.6 8 3.667 5 4.5 2.5 3.667-9.167 11.5-28.8 13.5-34 2.5-6.5 2 1 2 3.5s-1.5 94-1.5 95.5c0 1.2-1.333 21.5-2 31.5-.333.333-1.4 1.3-3 2.5s-9.667.833-13.5.5c-2.5-.333-8.3-1.4-11.5-3-3.5 1.5-7-13.5-7-17-1.5-1-3-30.5-3.5-32-.4-1.2 1.167-25.833 2-38 .667-9.5 2.1-29 2.5-31 .5-2.5.5-5.5 2-4.5s1.5 6 2.5 10 1 20 0 21-11.5 18-13 20-18 20.5-20 20.5-3.5-3.526-4.5-5.263c-1-5.263 2.5-3.5 3.5-2" />
</svg>