<svg width="882" height="148" viewBox="0 0 882 148" fill="none" xmlns="http://www.w3.org/2000/svg">
<path d="M535.508 111.98H518.372L511.4 125H499.808L532.484 65.78H540.548L548.192 125H537.188L535.508 111.98ZM523.16 102.74H535.088L533.744 89.636L533.828 80.396H533.408L530.048 89.72L523.16 102.74ZM583.895 125H559.451H548.531L560.963 66.2H571.883L561.551 114.752H585.995L583.895 125ZM625.568 78.044C624.504 77.372 622.936 76.7 620.864 76.028C618.792 75.3 616.496 74.936 613.976 74.936C612.688 74.936 611.428 75.076 610.196 75.356C608.964 75.58 607.872 75.972 606.92 76.532C605.968 77.092 605.212 77.82 604.652 78.716C604.092 79.612 603.812 80.676 603.812 81.908C603.812 83.532 604.316 84.904 605.324 86.024C606.332 87.144 607.592 88.208 609.104 89.216C610.672 90.168 612.324 91.148 614.06 92.156C615.852 93.164 617.504 94.34 619.016 95.684C620.584 97.028 621.872 98.652 622.88 100.556C623.888 102.404 624.392 104.7 624.392 107.444C624.392 110.748 623.804 113.604 622.628 116.012C621.508 118.364 619.884 120.296 617.756 121.808C615.684 123.32 613.164 124.412 610.196 125.084C607.284 125.812 604.036 126.176 600.452 126.176C598.492 126.176 596.616 126.064 594.824 125.84C593.088 125.616 591.464 125.336 589.952 125C588.44 124.664 587.096 124.3 585.92 123.908C584.8 123.46 583.904 123.04 583.232 122.648L588.86 112.904C589.42 113.24 590.148 113.604 591.044 113.996C591.94 114.388 592.948 114.752 594.068 115.088C595.244 115.424 596.504 115.704 597.848 115.928C599.192 116.152 600.536 116.264 601.88 116.264C603.448 116.264 604.932 116.152 606.332 115.928C607.732 115.648 608.936 115.228 609.944 114.668C611.008 114.052 611.82 113.296 612.38 112.4C612.996 111.504 613.304 110.384 613.304 109.04C613.304 107.528 612.8 106.24 611.792 105.176C610.784 104.112 609.496 103.104 607.928 102.152C606.416 101.2 604.764 100.22 602.972 99.212C601.236 98.148 599.584 96.916 598.016 95.516C596.504 94.116 595.244 92.436 594.236 90.476C593.228 88.46 592.724 86.024 592.724 83.168C592.724 79.92 593.284 77.148 594.404 74.852C595.58 72.556 597.148 70.68 599.108 69.224C601.068 67.768 603.364 66.704 605.996 66.032C608.628 65.36 611.456 65.024 614.48 65.024C616.104 65.024 617.728 65.108 619.352 65.276C620.976 65.444 622.516 65.696 623.972 66.032C625.428 66.312 626.772 66.676 628.004 67.124C629.236 67.516 630.272 67.964 631.112 68.468L625.568 78.044ZM635.125 66.62C636.189 66.452 637.393 66.284 638.737 66.116C640.081 65.948 641.509 65.808 643.021 65.696C644.533 65.584 646.073 65.5 647.641 65.444C649.265 65.388 650.833 65.36 652.345 65.36C654.921 65.36 657.301 65.64 659.485 66.2C661.725 66.704 663.629 67.516 665.197 68.636C666.821 69.756 668.081 71.212 668.977 73.004C669.929 74.74 670.405 76.84 670.405 79.304C670.405 81.152 670.097 82.944 669.481 84.68C668.865 86.36 667.969 87.872 666.793 89.216C665.673 90.56 664.301 91.68 662.677 92.576C661.109 93.472 659.317 94.06 657.301 94.34V94.76C658.365 94.984 659.429 95.404 660.493 96.02C661.557 96.58 662.509 97.336 663.349 98.288C664.189 99.184 664.861 100.276 665.365 101.564C665.869 102.796 666.121 104.196 666.121 105.764C666.121 109.348 665.421 112.428 664.021 115.004C662.621 117.524 660.745 119.596 658.393 121.22C656.041 122.788 653.297 123.964 650.161 124.748C647.025 125.476 643.721 125.84 640.249 125.84C639.353 125.84 638.177 125.84 636.721 125.84C635.321 125.84 633.809 125.784 632.185 125.672C630.561 125.616 628.937 125.504 627.313 125.336C625.689 125.168 624.205 124.916 622.861 124.58L635.125 66.62ZM635.209 115.844C635.433 115.956 635.825 116.04 636.385 116.096C637.001 116.152 637.645 116.208 638.317 116.264C639.045 116.264 639.773 116.292 640.501 116.348C641.229 116.348 641.845 116.348 642.349 116.348C643.749 116.348 645.177 116.18 646.633 115.844C648.145 115.508 649.489 114.948 650.665 114.164C651.897 113.38 652.905 112.372 653.689 111.14C654.473 109.908 654.865 108.396 654.865 106.604C654.865 105.204 654.557 104.056 653.941 103.16C653.325 102.264 652.513 101.564 651.505 101.06C650.497 100.5 649.321 100.136 647.977 99.968C646.689 99.744 645.345 99.632 643.945 99.632H638.569L635.209 115.844ZM640.501 90.896H644.113C644.897 90.896 645.821 90.896 646.885 90.896C647.949 90.84 648.845 90.756 649.573 90.644C650.581 90.476 651.645 90.196 652.765 89.804C653.941 89.412 654.977 88.852 655.873 88.124C656.825 87.396 657.609 86.472 658.225 85.352C658.841 84.232 659.149 82.832 659.149 81.152C659.149 78.744 658.337 77.092 656.713 76.196C655.145 75.3 653.129 74.852 650.665 74.852C649.209 74.852 647.865 74.88 646.633 74.936C645.401 74.992 644.449 75.076 643.777 75.188L640.501 90.896ZM677.995 66.2H688.915H711.091L708.907 76.448H686.731L683.791 90.14H704.035L701.767 100.388H681.691L678.583 114.752H701.179L699.079 125H676.483H665.563L677.995 66.2ZM715.117 66.788C717.805 66.284 720.521 65.92 723.265 65.696C726.009 65.472 728.473 65.36 730.657 65.36C733.233 65.36 735.669 65.668 737.965 66.284C740.261 66.9 742.249 67.852 743.929 69.14C745.609 70.372 746.925 71.996 747.877 74.012C748.885 75.972 749.389 78.296 749.389 80.984C749.389 84.064 748.913 86.752 747.961 89.048C747.065 91.288 745.861 93.192 744.349 94.76C742.837 96.272 741.101 97.476 739.141 98.372C737.237 99.212 735.277 99.772 733.261 100.052L736.537 102.656L744.685 125H732.589L724.525 101.984L718.729 100.892L713.689 125H702.769L715.117 66.788ZM720.409 93.08H724.861C726.485 93.08 728.081 92.94 729.649 92.66C731.217 92.324 732.589 91.764 733.765 90.98C734.997 90.14 735.977 89.048 736.705 87.704C737.489 86.36 737.881 84.652 737.881 82.58C737.881 80.676 737.237 79.052 735.949 77.708C734.661 76.308 732.589 75.608 729.733 75.608C728.613 75.608 727.549 75.664 726.541 75.776C725.589 75.832 724.777 75.916 724.105 76.028L720.409 93.08ZM773.475 94.34H791.115L785.571 120.548C783.051 122.508 780.391 123.936 777.591 124.832C774.847 125.728 771.879 126.176 768.687 126.176C765.607 126.176 762.751 125.644 760.119 124.58C757.543 123.516 755.303 121.976 753.399 119.96C751.495 117.944 750.011 115.452 748.947 112.484C747.883 109.516 747.351 106.128 747.351 102.32C747.351 95.88 748.219 90.308 749.955 85.604C751.747 80.9 754.155 77.036 757.179 74.012C760.203 70.932 763.731 68.664 767.763 67.208C771.795 65.752 776.051 65.024 780.531 65.024C783.723 65.024 786.551 65.304 789.015 65.864C791.535 66.368 793.439 66.9 794.727 67.46L790.359 77.12C789.183 76.56 787.699 76.112 785.907 75.776C784.171 75.44 782.043 75.272 779.523 75.272C776.555 75.272 773.811 75.832 771.291 76.952C768.771 78.072 766.587 79.724 764.739 81.908C762.891 84.092 761.435 86.808 760.371 90.056C759.363 93.248 758.859 96.916 758.859 101.06C758.859 105.708 759.951 109.348 762.135 111.98C764.319 114.612 767.259 115.928 770.955 115.928C773.699 115.928 776.107 115.228 778.179 113.828L780.531 102.656L771.963 101.312L773.475 94.34ZM824.795 100.388H804.383L799.175 125H788.255L800.687 66.2H811.607L806.567 90.14H826.979L832.019 66.2H842.939L830.507 125H819.587L824.795 100.388ZM848.065 66.2H858.985H881.161L878.977 76.448H856.801L853.861 90.14H874.105L871.837 100.388H851.761L848.653 114.752H871.249L869.149 125H846.553H835.633L848.065 66.2Z" fill="#19194D"/>
<path d="M397 122L460 0L490 2.62268e-06V3L467.279 47L498.73 47L523 0L553 2.62268e-06V3L490 125L460 125V122L483.238 77H451.787L427 125L397 125V122Z" fill="#19194D"/>
<path d="M194.508 111.98H177.372L170.4 125H158.808L191.484 65.78H199.548L207.192 125H196.188L194.508 111.98ZM182.16 102.74H194.088L192.744 89.636L192.828 80.396H192.408L189.048 89.72L182.16 102.74ZM250.455 66.2H260.703L252.723 104.168C251.883 108.2 250.791 111.616 249.447 114.416C248.103 117.16 246.479 119.4 244.575 121.136C242.671 122.872 240.431 124.132 237.855 124.916C235.279 125.644 232.311 126.008 228.951 126.008C225.703 126.008 222.959 125.644 220.719 124.916C218.479 124.132 216.631 123.04 215.175 121.64C213.775 120.24 212.739 118.588 212.067 116.684C211.451 114.78 211.143 112.68 211.143 110.384C211.143 109.264 211.199 108.116 211.311 106.94C211.479 105.764 211.703 104.532 211.983 103.244L219.879 66.2H230.715L222.987 103.16C222.539 105.288 222.315 107.024 222.315 108.368C222.315 111.056 223.015 112.96 224.415 114.08C225.815 115.2 227.859 115.76 230.547 115.76C233.907 115.76 236.511 114.78 238.359 112.82C240.207 110.86 241.607 107.696 242.559 103.328L250.455 66.2ZM265.37 66.788C268.058 66.284 270.774 65.92 273.518 65.696C276.262 65.472 278.726 65.36 280.91 65.36C283.486 65.36 285.922 65.668 288.218 66.284C290.514 66.9 292.502 67.852 294.182 69.14C295.862 70.372 297.178 71.996 298.13 74.012C299.138 75.972 299.642 78.296 299.642 80.984C299.642 84.064 299.166 86.752 298.214 89.048C297.318 91.288 296.114 93.192 294.602 94.76C293.09 96.272 291.354 97.476 289.394 98.372C287.49 99.212 285.53 99.772 283.514 100.052L286.79 102.656L294.938 125H282.842L274.778 101.984L268.982 100.892L263.942 125H253.022L265.37 66.788ZM270.662 93.08H275.114C276.738 93.08 278.334 92.94 279.902 92.66C281.47 92.324 282.842 91.764 284.018 90.98C285.25 90.14 286.23 89.048 286.958 87.704C287.742 86.36 288.134 84.652 288.134 82.58C288.134 80.676 287.49 79.052 286.202 77.708C284.914 76.308 282.842 75.608 279.986 75.608C278.866 75.608 277.802 75.664 276.794 75.776C275.842 75.832 275.03 75.916 274.358 76.028L270.662 93.08ZM310.729 66.2H321.565L309.133 125H298.297L310.729 66.2ZM354.267 122.564C350.515 124.972 345.923 126.176 340.491 126.176C336.795 126.176 333.575 125.56 330.831 124.328C328.087 123.096 325.791 121.388 323.943 119.204C322.151 117.02 320.807 114.472 319.911 111.56C319.015 108.648 318.567 105.512 318.567 102.152C318.567 95.544 319.491 89.916 321.339 85.268C323.187 80.564 325.623 76.728 328.647 73.76C331.671 70.736 335.115 68.524 338.979 67.124C342.899 65.724 346.903 65.024 350.991 65.024C354.183 65.024 356.899 65.276 359.139 65.78C361.435 66.228 363.227 66.76 364.515 67.376L360.231 77.12C359.111 76.504 357.767 76.056 356.199 75.776C354.631 75.44 352.643 75.272 350.235 75.272C347.379 75.272 344.719 75.86 342.255 77.036C339.791 78.212 337.663 79.892 335.871 82.076C334.079 84.26 332.651 86.92 331.587 90.056C330.579 93.192 330.075 96.748 330.075 100.724C330.075 105.484 331.251 109.208 333.603 111.896C336.011 114.584 339.203 115.928 343.179 115.928C345.699 115.928 347.771 115.676 349.395 115.172C351.075 114.612 352.643 113.94 354.099 113.156L354.267 122.564ZM367.885 66.2H378.805H400.981L398.797 76.448H376.621L373.681 90.14H393.925L391.657 100.388H371.581L368.473 114.752H391.069L388.969 125H366.373H355.453L367.885 66.2Z" fill="#2A2B85"/>
<path d="M0 122L63 0L93 2.62268e-06V63.9048L126 1.78815e-05H156V125H126V61.0953L93 125H63V61.0952L30 125L0 125V122Z" fill="#2A2B85"/>
</svg>
